<?xml version="1.0" encoding="UTF-8" standalone="no"?><!DOCTYPE svg PUBLIC "-//W3C//DTD SVG 1.1//EN" "http://www.w3.org/Graphics/SVG/1.1/DTD/svg11.dtd"><svg width="100%" height="100%" viewBox="0 0 768 1244" version="1.1" xmlns="http://www.w3.org/2000/svg" xmlns:xlink="http://www.w3.org/1999/xlink" xml:space="preserve" xmlns:serif="http://www.serif.com/" style="fill-rule:evenodd;clip-rule:evenodd;stroke-linejoin:round;stroke-miterlimit:2;"><rect id="画板2" x="0" y="0" width="767.537" height="1243.52" style="fill:none;"/><g id="g4"><path d="M686.425,962.852l0,51.638l-289.902,144.951l-288.623,-143.83l0.197,-51.952l578.328,-0.807Z" style="fill:url(#_Linear1);"/><path d="M394.979,819.735l-287.079,143.671l288.802,143.195l288.024,-142.899l-289.747,-143.967Z" style="fill:url(#_Linear2);"/></g><g id="g3"><path d="M684.675,715.679l0.046,50.694l-288.198,144.951l-288.623,-146.448l0.325,-49.608l576.45,0.411Z" style="fill:url(#_Linear3);"/><path d="M394.979,571.618l-287.079,143.671l288.802,143.195l288.024,-142.899l-289.747,-143.967Z" style="fill:url(#_Linear4);"/></g><g id="g2"><path d="M684.721,464.612l0,51.825l-288.198,143.471l-288.623,-146.71l0,-48.604l576.821,0.018Z" style="fill:url(#_Linear5);"/><path d="M394.979,320.202l-287.079,143.671l288.802,143.195l288.024,-142.899l-289.747,-143.967Z" style="fill:url(#_Linear6);"/></g><g id="g1"><path d="M684.721,222.536l0,53.319l-288.198,142.955l-288.623,-146.706l0,-49.568l576.821,0Z" style="fill:url(#_Linear7);"/><path d="M394.979,79.103l-287.079,143.671l288.802,143.195l288.024,-142.899l-289.747,-143.967Z" style="fill:url(#_Linear8);"/></g><defs><linearGradient id="_Linear1" x1="0" y1="0" x2="1" y2="0" gradientUnits="userSpaceOnUse" gradientTransform="matrix(891.908,282.699,-282.699,891.908,-183.699,867.944)"><stop offset="0" style="stop-color:#ffd1bc;stop-opacity:1"/><stop offset="1" style="stop-color:#342678;stop-opacity:1"/></linearGradient><linearGradient id="_Linear2" x1="0" y1="0" x2="1" y2="0" gradientUnits="userSpaceOnUse" gradientTransform="matrix(622.047,0.0806048,-0.0806048,622.047,232.114,993.429)"><stop offset="0" style="stop-color:#ce4b57;stop-opacity:1"/><stop offset="1" style="stop-color:#ffc2ae;stop-opacity:1"/></linearGradient><linearGradient id="_Linear3" x1="0" y1="0" x2="1" y2="0" gradientUnits="userSpaceOnUse" gradientTransform="matrix(891.908,282.699,-282.699,891.908,-183.699,619.827)"><stop offset="0" style="stop-color:#ffd1bc;stop-opacity:1"/><stop offset="1" style="stop-color:#342678;stop-opacity:1"/></linearGradient><linearGradient id="_Linear4" x1="0" y1="0" x2="1" y2="0" gradientUnits="userSpaceOnUse" gradientTransform="matrix(622.047,0.0806048,-0.0806048,622.047,232.114,745.312)"><stop offset="0" style="stop-color:#4b7cce;stop-opacity:1"/><stop offset="1" style="stop-color:#ffc2ae;stop-opacity:1"/></linearGradient><linearGradient id="_Linear5" x1="0" y1="0" x2="1" y2="0" gradientUnits="userSpaceOnUse" gradientTransform="matrix(928.089,-25.8201,25.8201,928.089,-138.985,557.311)"><stop offset="0" style="stop-color:#ffd1bc;stop-opacity:1"/><stop offset="1" style="stop-color:#522e73;stop-opacity:1"/></linearGradient><linearGradient id="_Linear6" x1="0" y1="0" x2="1" y2="0" gradientUnits="userSpaceOnUse" gradientTransform="matrix(622.047,0.0806048,-0.0806048,622.047,232.114,493.896)"><stop offset="0" style="stop-color:#8f708a;stop-opacity:1"/><stop offset="1" style="stop-color:#ffc2ae;stop-opacity:1"/></linearGradient><linearGradient id="_Linear7" x1="0" y1="0" x2="1" y2="0" gradientUnits="userSpaceOnUse" gradientTransform="matrix(928.089,-25.8201,25.8201,928.089,-138.985,316.212)"><stop offset="0" style="stop-color:#ffd1bc;stop-opacity:1"/><stop offset="1" style="stop-color:#387221;stop-opacity:1"/></linearGradient><linearGradient id="_Linear8" x1="0" y1="0" x2="1" y2="0" gradientUnits="userSpaceOnUse" gradientTransform="matrix(622.047,0.0806048,-0.0806048,622.047,232.114,252.797)"><stop offset="0" style="stop-color:#9fda88;stop-opacity:1"/><stop offset="1" style="stop-color:#ffc2ae;stop-opacity:1"/></linearGradient></defs></svg>