{
    "asset" : {
        "generator" : "Khronos glTF Blender I/O v0.9.36",
        "version" : "2.0"
    },
    "scene" : 0,
    "scenes" : [
        {
            "name" : "Scene",
            "nodes" : [
                0,
                1,
                2,
                3,
                4,
                5
            ]
        }
    ],
    "nodes" : [
        {
            "mesh" : 0,
            "name" : "disk",
            "scale" : [
                0.3236696124076843,
                0.3236696124076843,
                0.3236696124076843
            ],
            "translation" : [
                -9.716669082641602,
                0.6572240591049194,
                15.961857795715332
            ]
        },
        {
            "mesh" : 1,
            "name" : "diskLight",
            "scale" : [
                0.3236696124076843,
                0.3236696124076843,
                0.3236696124076843
            ],
            "translation" : [
                -9.716669082641602,
                0.7173494696617126,
                15.961857795715332
            ]
        },
        {
            "mesh" : 2,
            "name" : "diskLights",
            "scale" : [
                0.3236696124076843,
                0.3236696124076843,
                0.3236696124076843
            ],
            "translation" : [
                -9.716669082641602,
                0.6572240591049194,
                15.961857795715332
            ]
        },
        {
            "mesh" : 3,
            "name" : "cubeB",
            "scale" : [
                0.9094163775444031,
                0.9094163775444031,
                0.9094163775444031
            ],
            "translation" : [
                -9.7253999710083,
                2.9357361793518066,
                16.018638610839844
            ]
        },
        {
            "mesh" : 4,
            "name" : "person",
            "rotation" : [
                0,
                0,
                -0.7071067690849304,
                0.7071068286895752
            ],
            "scale" : [
                0.6414856910705566,
                0.3231201171875,
                0.3231201171875
            ],
            "translation" : [
                -6.593247890472412,
                2.4391868114471436,
                12.967757225036621
            ]
        },
        {
            "mesh" : 5,
            "name" : "frame",
            "scale" : [
                0.36349940299987793,
                0.1213918998837471,
                0.36349940299987793
            ],
            "translation" : [
                -9.739770889282227,
                0.01407325267791748,
                15.899733543395996
            ]
        }
    ],
    "meshes" : [
        {
            "name" : "Cylinder.065",
            "primitives" : [
                {
                    "attributes" : {
                        "POSITION" : 0,
                        "NORMAL" : 1,
                        "TEXCOORD_0" : 2
                    },
                    "indices" : 3
                }
            ]
        },
        {
            "name" : "Cylinder.066",
            "primitives" : [
                {
                    "attributes" : {
                        "POSITION" : 4,
                        "NORMAL" : 5,
                        "TEXCOORD_0" : 6
                    },
                    "indices" : 7
                }
            ]
        },
        {
            "name" : "Cylinder.067",
            "primitives" : [
                {
                    "attributes" : {
                        "POSITION" : 8,
                        "NORMAL" : 9,
                        "TEXCOORD_0" : 10
                    },
                    "indices" : 11
                }
            ]
        },
        {
            "name" : "Cube.016",
            "primitives" : [
                {
                    "attributes" : {
                        "POSITION" : 12,
                        "NORMAL" : 13,
                        "TEXCOORD_0" : 14
                    },
                    "indices" : 15
                }
            ]
        },
        {
            "name" : "Plane",
            "primitives" : [
                {
                    "attributes" : {
                        "POSITION" : 16,
                        "NORMAL" : 17,
                        "TEXCOORD_0" : 18
                    },
                    "indices" : 19
                }
            ]
        },
        {
            "name" : "Cube.010",
            "primitives" : [
                {
                    "attributes" : {
                        "POSITION" : 20,
                        "NORMAL" : 21,
                        "TEXCOORD_0" : 22
                    },
                    "indices" : 23
                }
            ]
        }
    ],
    "accessors" : [
        {
            "bufferView" : 0,
            "componentType" : 5126,
            "count" : 1594,
            "max" : [
                5.130000114440918,
                1.3466033935546875,
                5.017916679382324
            ],
            "min" : [
                -5.017916679382324,
                -2.000272750854492,
                -5.017916202545166
            ],
            "type" : "VEC3"
        },
        {
            "bufferView" : 1,
            "componentType" : 5126,
            "count" : 1594,
            "type" : "VEC3"
        },
        {
            "bufferView" : 2,
            "componentType" : 5126,
            "count" : 1594,
            "type" : "VEC2"
        },
        {
            "bufferView" : 3,
            "componentType" : 5123,
            "count" : 2664,
            "type" : "SCALAR"
        },
        {
            "bufferView" : 4,
            "componentType" : 5126,
            "count" : 12,
            "max" : [
                2.696528196334839,
                0.5781446099281311,
                2.6965279579162598
            ],
            "min" : [
                -2.6965279579162598,
                0.5781446099281311,
                -2.6965279579162598
            ],
            "type" : "VEC3"
        },
        {
            "bufferView" : 5,
            "componentType" : 5126,
            "count" : 12,
            "type" : "VEC3"
        },
        {
            "bufferView" : 6,
            "componentType" : 5126,
            "count" : 12,
            "type" : "VEC2"
        },
        {
            "bufferView" : 7,
            "componentType" : 5123,
            "count" : 30,
            "type" : "SCALAR"
        },
        {
            "bufferView" : 8,
            "componentType" : 5126,
            "count" : 48,
            "max" : [
                4.749990463256836,
                0.5256131291389465,
                4.749990463256836
            ],
            "min" : [
                -4.749990463256836,
                -0.0633753165602684,
                -4.749990463256836
            ],
            "type" : "VEC3"
        },
        {
            "bufferView" : 9,
            "componentType" : 5126,
            "count" : 48,
            "type" : "VEC3"
        },
        {
            "bufferView" : 10,
            "componentType" : 5126,
            "count" : 48,
            "type" : "VEC2"
        },
        {
            "bufferView" : 11,
            "componentType" : 5123,
            "count" : 72,
            "type" : "SCALAR"
        },
        {
            "bufferView" : 12,
            "componentType" : 5126,
            "count" : 24,
            "max" : [
                1,
                1,
                1
            ],
            "min" : [
                -1,
                -1,
                -1
            ],
            "type" : "VEC3"
        },
        {
            "bufferView" : 13,
            "componentType" : 5126,
            "count" : 24,
            "type" : "VEC3"
        },
        {
            "bufferView" : 14,
            "componentType" : 5126,
            "count" : 24,
            "type" : "VEC2"
        },
        {
            "bufferView" : 15,
            "componentType" : 5123,
            "count" : 36,
            "type" : "SCALAR"
        },
        {
            "bufferView" : 16,
            "componentType" : 5126,
            "count" : 4,
            "max" : [
                1,
                0,
                1
            ],
            "min" : [
                -1,
                0,
                -1
            ],
            "type" : "VEC3"
        },
        {
            "bufferView" : 17,
            "componentType" : 5126,
            "count" : 4,
            "type" : "VEC3"
        },
        {
            "bufferView" : 18,
            "componentType" : 5126,
            "count" : 4,
            "type" : "VEC2"
        },
        {
            "bufferView" : 19,
            "componentType" : 5123,
            "count" : 6,
            "type" : "SCALAR"
        },
        {
            "bufferView" : 20,
            "componentType" : 5126,
            "count" : 5217,
            "max" : [
                9.912227630615234,
                20.91073226928711,
                10.716557502746582
            ],
            "min" : [
                -10.947632789611816,
                -0.17020802199840546,
                -10.716556549072266
            ],
            "type" : "VEC3"
        },
        {
            "bufferView" : 21,
            "componentType" : 5126,
            "count" : 5217,
            "type" : "VEC3"
        },
        {
            "bufferView" : 22,
            "componentType" : 5126,
            "count" : 5217,
            "type" : "VEC2"
        },
        {
            "bufferView" : 23,
            "componentType" : 5123,
            "count" : 9444,
            "type" : "SCALAR"
        }
    ],
    "bufferViews" : [
        {
            "buffer" : 0,
            "byteLength" : 19128,
            "byteOffset" : 0
        },
        {
            "buffer" : 0,
            "byteLength" : 19128,
            "byteOffset" : 19128
        },
        {
            "buffer" : 0,
            "byteLength" : 12752,
            "byteOffset" : 38256
        },
        {
            "buffer" : 0,
            "byteLength" : 5328,
            "byteOffset" : 51008
        },
        {
            "buffer" : 0,
            "byteLength" : 144,
            "byteOffset" : 56336
        },
        {
            "buffer" : 0,
            "byteLength" : 144,
            "byteOffset" : 56480
        },
        {
            "buffer" : 0,
            "byteLength" : 96,
            "byteOffset" : 56624
        },
        {
            "buffer" : 0,
            "byteLength" : 60,
            "byteOffset" : 56720
        },
        {
            "buffer" : 0,
            "byteLength" : 576,
            "byteOffset" : 56780
        },
        {
            "buffer" : 0,
            "byteLength" : 576,
            "byteOffset" : 57356
        },
        {
            "buffer" : 0,
            "byteLength" : 384,
            "byteOffset" : 57932
        },
        {
            "buffer" : 0,
            "byteLength" : 144,
            "byteOffset" : 58316
        },
        {
            "buffer" : 0,
            "byteLength" : 288,
            "byteOffset" : 58460
        },
        {
            "buffer" : 0,
            "byteLength" : 288,
            "byteOffset" : 58748
        },
        {
            "buffer" : 0,
            "byteLength" : 192,
            "byteOffset" : 59036
        },
        {
            "buffer" : 0,
            "byteLength" : 72,
            "byteOffset" : 59228
        },
        {
            "buffer" : 0,
            "byteLength" : 48,
            "byteOffset" : 59300
        },
        {
            "buffer" : 0,
            "byteLength" : 48,
            "byteOffset" : 59348
        },
        {
            "buffer" : 0,
            "byteLength" : 32,
            "byteOffset" : 59396
        },
        {
            "buffer" : 0,
            "byteLength" : 12,
            "byteOffset" : 59428
        },
        {
            "buffer" : 0,
            "byteLength" : 62604,
            "byteOffset" : 59440
        },
        {
            "buffer" : 0,
            "byteLength" : 62604,
            "byteOffset" : 122044
        },
        {
            "buffer" : 0,
            "byteLength" : 41736,
            "byteOffset" : 184648
        },
        {
            "buffer" : 0,
            "byteLength" : 18888,
            "byteOffset" : 226384
        }
    ],
    "buffers" : [
        {
            "byteLength" : 245272,
            "uri" : "data:application/octet-stream;base64,"
        }
    ]
}
