{
    "asset" : {
        "generator" : "Khronos glTF Blender I/O v0.9.36",
        "version" : "2.0"
    },
    "scene" : 0,
    "scenes" : [
        {
            "name" : "Scene",
            "nodes" : [
                0,
                1,
                2,
                3,
                4,
                5,
                6
            ]
        }
    ],
    "nodes" : [
        {
            "mesh" : 0,
            "name" : "Cube",
            "scale" : [
                0.41325342655181885,
                1,
                1
            ],
            "translation" : [
                -1.4749246835708618,
                0.9822219014167786,
                0
            ]
        },
        {
            "mesh" : 1,
            "name" : "lights",
            "scale" : [
                0.739501953125,
                0.8010210394859314,
                0.739501953125
            ],
            "translation" : [
                -1.4593151807785034,
                1.078050136566162,
                -0.782920777797699
            ]
        },
        {
            "mesh" : 2,
            "name" : "faces",
            "scale" : [
                0.41325342655181885,
                1,
                1
            ],
            "translation" : [
                -1.4749246835708618,
                0.9822219014167786,
                0
            ]
        },
        {
            "mesh" : 3,
            "name" : "faceA",
            "scale" : [
                0.41325342655181885,
                1,
                1
            ],
            "translation" : [
                -1.4749246835708618,
                0.9822219014167786,
                0
            ]
        },
        {
            "mesh" : 4,
            "name" : "monitor",
            "scale" : [
                0.07028824090957642,
                0.4899485111236572,
                1
            ],
            "translation" : [
                -1.201151967048645,
                1.436065435409546,
                -2.997283458709717
            ]
        },
        {
            "mesh" : 5,
            "name" : "screenA",
            "scale" : [
                0.07028824090957642,
                0.4899485111236572,
                1
            ],
            "translation" : [
                -1.201151967048645,
                1.436065435409546,
                -2.997283458709717
            ]
        },
        {
            "name" : "areaLight",
            "rotation" : [
                0,
                0,
                -0.49739497900009155,
                0.8675242066383362
            ],
            "scale" : [
                1,
                1,
                5.650000095367432
            ],
            "translation" : [
                2.190253734588623,
                1.875095009803772,
                -1.6064271926879883
            ]
        }
    ],
    "materials" : [
        {
            "doubleSided" : true,
            "name" : "Material",
            "pbrMetallicRoughness" : {
                "baseColorFactor" : [
                    0.800000011920929,
                    0.800000011920929,
                    0.800000011920929,
                    1
                ],
                "metallicFactor" : 0,
                "roughnessFactor" : 0.4000000059604645
            }
        }
    ],
    "meshes" : [
        {
            "name" : "Cube",
            "primitives" : [
                {
                    "attributes" : {
                        "POSITION" : 0,
                        "NORMAL" : 1,
                        "TEXCOORD_0" : 2
                    },
                    "indices" : 3,
                    "material" : 0
                }
            ]
        },
        {
            "name" : "Cylinder.004",
            "primitives" : [
                {
                    "attributes" : {
                        "POSITION" : 4,
                        "NORMAL" : 5,
                        "TEXCOORD_0" : 6
                    },
                    "indices" : 7
                }
            ]
        },
        {
            "name" : "Cube.001",
            "primitives" : [
                {
                    "attributes" : {
                        "POSITION" : 8,
                        "NORMAL" : 9,
                        "TEXCOORD_0" : 10
                    },
                    "indices" : 11,
                    "material" : 0
                }
            ]
        },
        {
            "name" : "Cube.002",
            "primitives" : [
                {
                    "attributes" : {
                        "POSITION" : 12,
                        "NORMAL" : 13,
                        "TEXCOORD_0" : 14
                    },
                    "indices" : 15,
                    "material" : 0
                }
            ]
        },
        {
            "name" : "Cube.003",
            "primitives" : [
                {
                    "attributes" : {
                        "POSITION" : 16,
                        "NORMAL" : 17,
                        "TEXCOORD_0" : 18
                    },
                    "indices" : 19
                }
            ]
        },
        {
            "name" : "Cube.004",
            "primitives" : [
                {
                    "attributes" : {
                        "POSITION" : 20,
                        "NORMAL" : 21,
                        "TEXCOORD_0" : 22
                    },
                    "indices" : 23
                }
            ]
        }
    ],
    "accessors" : [
        {
            "bufferView" : 0,
            "componentType" : 5126,
            "count" : 2015,
            "max" : [
                1,
                1.0846251249313354,
                1
            ],
            "min" : [
                -1,
                -1,
                -1
            ],
            "type" : "VEC3"
        },
        {
            "bufferView" : 1,
            "componentType" : 5126,
            "count" : 2015,
            "type" : "VEC3"
        },
        {
            "bufferView" : 2,
            "componentType" : 5126,
            "count" : 2015,
            "type" : "VEC2"
        },
        {
            "bufferView" : 3,
            "componentType" : 5123,
            "count" : 4080,
            "type" : "SCALAR"
        },
        {
            "bufferView" : 4,
            "componentType" : 5126,
            "count" : 432,
            "max" : [
                0.2898555397987366,
                1,
                2.2055585384368896
            ],
            "min" : [
                -0.3062592148780823,
                -1,
                -0.06999999284744263
            ],
            "type" : "VEC3"
        },
        {
            "bufferView" : 5,
            "componentType" : 5126,
            "count" : 432,
            "type" : "VEC3"
        },
        {
            "bufferView" : 6,
            "componentType" : 5126,
            "count" : 432,
            "type" : "VEC2"
        },
        {
            "bufferView" : 7,
            "componentType" : 5123,
            "count" : 792,
            "type" : "SCALAR"
        },
        {
            "bufferView" : 8,
            "componentType" : 5126,
            "count" : 30,
            "max" : [
                0.7028089165687561,
                0.5174354910850525,
                0.8792652487754822
            ],
            "min" : [
                0.7028089165687561,
                -0.3846825957298279,
                0.19144707918167114
            ],
            "type" : "VEC3"
        },
        {
            "bufferView" : 9,
            "componentType" : 5126,
            "count" : 30,
            "type" : "VEC3"
        },
        {
            "bufferView" : 10,
            "componentType" : 5126,
            "count" : 30,
            "type" : "VEC2"
        },
        {
            "bufferView" : 11,
            "componentType" : 5123,
            "count" : 72,
            "type" : "SCALAR"
        },
        {
            "bufferView" : 12,
            "componentType" : 5126,
            "count" : 10,
            "max" : [
                0.7028089165687561,
                0.8781505227088928,
                0.8792652487754822
            ],
            "min" : [
                0.7028089165687561,
                0.6974623799324036,
                0.19144707918167114
            ],
            "type" : "VEC3"
        },
        {
            "bufferView" : 13,
            "componentType" : 5126,
            "count" : 10,
            "type" : "VEC3"
        },
        {
            "bufferView" : 14,
            "componentType" : 5126,
            "count" : 10,
            "type" : "VEC2"
        },
        {
            "bufferView" : 15,
            "componentType" : 5123,
            "count" : 24,
            "type" : "SCALAR"
        },
        {
            "bufferView" : 16,
            "componentType" : 5126,
            "count" : 208,
            "max" : [
                1,
                1,
                1
            ],
            "min" : [
                -1,
                -2.8945865631103516,
                -1
            ],
            "type" : "VEC3"
        },
        {
            "bufferView" : 17,
            "componentType" : 5126,
            "count" : 208,
            "type" : "VEC3"
        },
        {
            "bufferView" : 18,
            "componentType" : 5126,
            "count" : 208,
            "type" : "VEC2"
        },
        {
            "bufferView" : 19,
            "componentType" : 5123,
            "count" : 324,
            "type" : "SCALAR"
        },
        {
            "bufferView" : 20,
            "componentType" : 5126,
            "count" : 6,
            "max" : [
                0.2516067624092102,
                0.9584676027297974,
                0.9584676027297974
            ],
            "min" : [
                0.2516067624092102,
                -0.9584676027297974,
                -0.9584676027297974
            ],
            "type" : "VEC3"
        },
        {
            "bufferView" : 21,
            "componentType" : 5126,
            "count" : 6,
            "type" : "VEC3"
        },
        {
            "bufferView" : 22,
            "componentType" : 5126,
            "count" : 6,
            "type" : "VEC2"
        },
        {
            "bufferView" : 23,
            "componentType" : 5123,
            "count" : 12,
            "type" : "SCALAR"
        }
    ],
    "bufferViews" : [
        {
            "buffer" : 0,
            "byteLength" : 24180,
            "byteOffset" : 0
        },
        {
            "buffer" : 0,
            "byteLength" : 24180,
            "byteOffset" : 24180
        },
        {
            "buffer" : 0,
            "byteLength" : 16120,
            "byteOffset" : 48360
        },
        {
            "buffer" : 0,
            "byteLength" : 8160,
            "byteOffset" : 64480
        },
        {
            "buffer" : 0,
            "byteLength" : 5184,
            "byteOffset" : 72640
        },
        {
            "buffer" : 0,
            "byteLength" : 5184,
            "byteOffset" : 77824
        },
        {
            "buffer" : 0,
            "byteLength" : 3456,
            "byteOffset" : 83008
        },
        {
            "buffer" : 0,
            "byteLength" : 1584,
            "byteOffset" : 86464
        },
        {
            "buffer" : 0,
            "byteLength" : 360,
            "byteOffset" : 88048
        },
        {
            "buffer" : 0,
            "byteLength" : 360,
            "byteOffset" : 88408
        },
        {
            "buffer" : 0,
            "byteLength" : 240,
            "byteOffset" : 88768
        },
        {
            "buffer" : 0,
            "byteLength" : 144,
            "byteOffset" : 89008
        },
        {
            "buffer" : 0,
            "byteLength" : 120,
            "byteOffset" : 89152
        },
        {
            "buffer" : 0,
            "byteLength" : 120,
            "byteOffset" : 89272
        },
        {
            "buffer" : 0,
            "byteLength" : 80,
            "byteOffset" : 89392
        },
        {
            "buffer" : 0,
            "byteLength" : 48,
            "byteOffset" : 89472
        },
        {
            "buffer" : 0,
            "byteLength" : 2496,
            "byteOffset" : 89520
        },
        {
            "buffer" : 0,
            "byteLength" : 2496,
            "byteOffset" : 92016
        },
        {
            "buffer" : 0,
            "byteLength" : 1664,
            "byteOffset" : 94512
        },
        {
            "buffer" : 0,
            "byteLength" : 648,
            "byteOffset" : 96176
        },
        {
            "buffer" : 0,
            "byteLength" : 72,
            "byteOffset" : 96824
        },
        {
            "buffer" : 0,
            "byteLength" : 72,
            "byteOffset" : 96896
        },
        {
            "buffer" : 0,
            "byteLength" : 48,
            "byteOffset" : 96968
        },
        {
            "buffer" : 0,
            "byteLength" : 24,
            "byteOffset" : 97016
        }
    ],
    "buffers" : [
        {
            "byteLength" : 97040,
            "uri" : "data:application/octet-stream;base64,"
        }
    ]
}
