{
    "asset" : {
        "generator" : "Khronos glTF Blender I/O v0.9.36",
        "version" : "2.0"
    },
    "scene" : 0,
    "scenes" : [
        {
            "name" : "Scene",
            "nodes" : [
                0,
                1,
                2,
                3
            ]
        }
    ],
    "nodes" : [
        {
            "mesh" : 0,
            "name" : "Lframe"
        },
        {
            "mesh" : 1,
            "name" : "Sframe"
        },
        {
            "mesh" : 2,
            "name" : "Lface"
        },
        {
            "mesh" : 3,
            "name" : "Sface"
        }
    ],
    "materials" : [
        {
            "doubleSided" : true,
            "name" : "Material",
            "pbrMetallicRoughness" : {
                "baseColorFactor" : [
                    0.800000011920929,
                    0.800000011920929,
                    0.800000011920929,
                    1
                ],
                "metallicFactor" : 0,
                "roughnessFactor" : 0.4000000059604645
            }
        }
    ],
    "meshes" : [
        {
            "name" : "Cube",
            "primitives" : [
                {
                    "attributes" : {
                        "POSITION" : 0,
                        "NORMAL" : 1,
                        "TEXCOORD_0" : 2
                    },
                    "indices" : 3,
                    "material" : 0
                }
            ]
        },
        {
            "name" : "Cube.001",
            "primitives" : [
                {
                    "attributes" : {
                        "POSITION" : 4,
                        "NORMAL" : 5,
                        "TEXCOORD_0" : 6
                    },
                    "indices" : 3,
                    "material" : 0
                }
            ]
        },
        {
            "name" : "Cube.002",
            "primitives" : [
                {
                    "attributes" : {
                        "POSITION" : 7,
                        "NORMAL" : 8,
                        "TEXCOORD_0" : 9
                    },
                    "indices" : 10,
                    "material" : 0
                }
            ]
        },
        {
            "name" : "Cube.003",
            "primitives" : [
                {
                    "attributes" : {
                        "POSITION" : 11,
                        "NORMAL" : 12,
                        "TEXCOORD_0" : 13
                    },
                    "indices" : 10,
                    "material" : 0
                }
            ]
        }
    ],
    "accessors" : [
        {
            "bufferView" : 0,
            "componentType" : 5126,
            "count" : 84,
            "max" : [
                0.01449129730463028,
                0.9999996423721313,
                1.7809644937515259
            ],
            "min" : [
                -0.044285938143730164,
                -1.0000003576278687,
                -1.7809644937515259
            ],
            "type" : "VEC3"
        },
        {
            "bufferView" : 1,
            "componentType" : 5126,
            "count" : 84,
            "type" : "VEC3"
        },
        {
            "bufferView" : 2,
            "componentType" : 5126,
            "count" : 84,
            "type" : "VEC2"
        },
        {
            "bufferView" : 3,
            "componentType" : 5123,
            "count" : 126,
            "type" : "SCALAR"
        },
        {
            "bufferView" : 4,
            "componentType" : 5126,
            "count" : 84,
            "max" : [
                0.01449129730463028,
                0.9999996423721313,
                1.0643672943115234
            ],
            "min" : [
                -0.044285938143730164,
                -1.0000003576278687,
                -1.0643672943115234
            ],
            "type" : "VEC3"
        },
        {
            "bufferView" : 5,
            "componentType" : 5126,
            "count" : 84,
            "type" : "VEC3"
        },
        {
            "bufferView" : 6,
            "componentType" : 5126,
            "count" : 84,
            "type" : "VEC2"
        },
        {
            "bufferView" : 7,
            "componentType" : 5126,
            "count" : 4,
            "max" : [
                0,
                0.9862353801727295,
                1.7564501762390137
            ],
            "min" : [
                0,
                -0.9862353801727295,
                -1.7564501762390137
            ],
            "type" : "VEC3"
        },
        {
            "bufferView" : 8,
            "componentType" : 5126,
            "count" : 4,
            "type" : "VEC3"
        },
        {
            "bufferView" : 9,
            "componentType" : 5126,
            "count" : 4,
            "type" : "VEC2"
        },
        {
            "bufferView" : 10,
            "componentType" : 5123,
            "count" : 6,
            "type" : "SCALAR"
        },
        {
            "bufferView" : 11,
            "componentType" : 5126,
            "count" : 4,
            "max" : [
                0,
                0.9862353801727295,
                1.0497169494628906
            ],
            "min" : [
                0,
                -0.9862353801727295,
                -1.0497169494628906
            ],
            "type" : "VEC3"
        },
        {
            "bufferView" : 12,
            "componentType" : 5126,
            "count" : 4,
            "type" : "VEC3"
        },
        {
            "bufferView" : 13,
            "componentType" : 5126,
            "count" : 4,
            "type" : "VEC2"
        }
    ],
    "bufferViews" : [
        {
            "buffer" : 0,
            "byteLength" : 1008,
            "byteOffset" : 0
        },
        {
            "buffer" : 0,
            "byteLength" : 1008,
            "byteOffset" : 1008
        },
        {
            "buffer" : 0,
            "byteLength" : 672,
            "byteOffset" : 2016
        },
        {
            "buffer" : 0,
            "byteLength" : 252,
            "byteOffset" : 2688
        },
        {
            "buffer" : 0,
            "byteLength" : 1008,
            "byteOffset" : 2940
        },
        {
            "buffer" : 0,
            "byteLength" : 1008,
            "byteOffset" : 3948
        },
        {
            "buffer" : 0,
            "byteLength" : 672,
            "byteOffset" : 4956
        },
        {
            "buffer" : 0,
            "byteLength" : 48,
            "byteOffset" : 5628
        },
        {
            "buffer" : 0,
            "byteLength" : 48,
            "byteOffset" : 5676
        },
        {
            "buffer" : 0,
            "byteLength" : 32,
            "byteOffset" : 5724
        },
        {
            "buffer" : 0,
            "byteLength" : 12,
            "byteOffset" : 5756
        },
        {
            "buffer" : 0,
            "byteLength" : 48,
            "byteOffset" : 5768
        },
        {
            "buffer" : 0,
            "byteLength" : 48,
            "byteOffset" : 5816
        },
        {
            "buffer" : 0,
            "byteLength" : 32,
            "byteOffset" : 5864
        }
    ],
    "buffers" : [
        {
            "byteLength" : 5896,
            "uri" : "scene6Models.bin"
        }
    ]
}
