{
    "asset" : {
        "generator" : "Khronos glTF Blender I/O v0.9.36",
        "version" : "2.0"
    },
    "scene" : 0,
    "scenes" : [
        {
            "name" : "Scene",
            "nodes" : [
                0,
                1,
                2,
                3,
                4
            ]
        }
    ],
    "nodes" : [
        {
            "mesh" : 0,
            "name" : "side"
        },
        {
            "name" : "Camera",
            "rotation" : [
                0.483536034822464,
                0.33687159419059753,
                -0.20870360732078552,
                0.7804827094078064
            ],
            "translation" : [
                7.358891487121582,
                4.958309173583984,
                6.925790786743164
            ]
        },
        {
            "mesh" : 1,
            "name" : "face"
        },
        {
            "mesh" : 2,
            "name" : "wheel",
            "translation" : [
                0.4934632480144501,
                0,
                3.0370354652404785
            ]
        },
        {
            "mesh" : 3,
            "name" : "wheel2",
            "translation" : [
                0.4934632480144501,
                0,
                -3.3568038940429688
            ]
        }
    ],
    "meshes" : [
        {
            "name" : "Cube",
            "primitives" : [
                {
                    "attributes" : {
                        "POSITION" : 0,
                        "NORMAL" : 1,
                        "TEXCOORD_0" : 2
                    },
                    "indices" : 3
                }
            ]
        },
        {
            "name" : "Cube.001",
            "primitives" : [
                {
                    "attributes" : {
                        "POSITION" : 4,
                        "NORMAL" : 5,
                        "TEXCOORD_0" : 6
                    },
                    "indices" : 7
                }
            ]
        },
        {
            "name" : "Cylinder.003",
            "primitives" : [
                {
                    "attributes" : {
                        "POSITION" : 8,
                        "NORMAL" : 9,
                        "TEXCOORD_0" : 10
                    },
                    "indices" : 11
                }
            ]
        },
        {
            "name" : "Cylinder.004",
            "primitives" : [
                {
                    "attributes" : {
                        "POSITION" : 12,
                        "NORMAL" : 13,
                        "TEXCOORD_0" : 14
                    },
                    "indices" : 11
                }
            ]
        }
    ],
    "accessors" : [
        {
            "bufferView" : 0,
            "componentType" : 5126,
            "count" : 320,
            "max" : [
                1,
                0.5984154939651489,
                4.6245880126953125
            ],
            "min" : [
                -1,
                -0.5984154939651489,
                -4.6245880126953125
            ],
            "type" : "VEC3"
        },
        {
            "bufferView" : 1,
            "componentType" : 5126,
            "count" : 320,
            "type" : "VEC3"
        },
        {
            "bufferView" : 2,
            "componentType" : 5126,
            "count" : 320,
            "type" : "VEC2"
        },
        {
            "bufferView" : 3,
            "componentType" : 5123,
            "count" : 660,
            "type" : "SCALAR"
        },
        {
            "bufferView" : 4,
            "componentType" : 5126,
            "count" : 64,
            "max" : [
                1,
                0.5984154939651489,
                4.6245880126953125
            ],
            "min" : [
                -1,
                -0.5984154939651489,
                -4.6245880126953125
            ],
            "type" : "VEC3"
        },
        {
            "bufferView" : 5,
            "componentType" : 5126,
            "count" : 64,
            "type" : "VEC3"
        },
        {
            "bufferView" : 6,
            "componentType" : 5126,
            "count" : 64,
            "type" : "VEC2"
        },
        {
            "bufferView" : 7,
            "componentType" : 5123,
            "count" : 96,
            "type" : "SCALAR"
        },
        {
            "bufferView" : 8,
            "componentType" : 5126,
            "count" : 312,
            "max" : [
                0.23511676490306854,
                0.49704214930534363,
                0.49704211950302124
            ],
            "min" : [
                -0.23511677980422974,
                -0.49704214930534363,
                -0.49704211950302124
            ],
            "type" : "VEC3"
        },
        {
            "bufferView" : 9,
            "componentType" : 5126,
            "count" : 312,
            "type" : "VEC3"
        },
        {
            "bufferView" : 10,
            "componentType" : 5126,
            "count" : 312,
            "type" : "VEC2"
        },
        {
            "bufferView" : 11,
            "componentType" : 5123,
            "count" : 492,
            "type" : "SCALAR"
        },
        {
            "bufferView" : 12,
            "componentType" : 5126,
            "count" : 312,
            "max" : [
                0.23511676490306854,
                0.49704214930534363,
                0.49704211950302124
            ],
            "min" : [
                -0.23511677980422974,
                -0.49704214930534363,
                -0.49704211950302124
            ],
            "type" : "VEC3"
        },
        {
            "bufferView" : 13,
            "componentType" : 5126,
            "count" : 312,
            "type" : "VEC3"
        },
        {
            "bufferView" : 14,
            "componentType" : 5126,
            "count" : 312,
            "type" : "VEC2"
        }
    ],
    "bufferViews" : [
        {
            "buffer" : 0,
            "byteLength" : 3840,
            "byteOffset" : 0
        },
        {
            "buffer" : 0,
            "byteLength" : 3840,
            "byteOffset" : 3840
        },
        {
            "buffer" : 0,
            "byteLength" : 2560,
            "byteOffset" : 7680
        },
        {
            "buffer" : 0,
            "byteLength" : 1320,
            "byteOffset" : 10240
        },
        {
            "buffer" : 0,
            "byteLength" : 768,
            "byteOffset" : 11560
        },
        {
            "buffer" : 0,
            "byteLength" : 768,
            "byteOffset" : 12328
        },
        {
            "buffer" : 0,
            "byteLength" : 512,
            "byteOffset" : 13096
        },
        {
            "buffer" : 0,
            "byteLength" : 192,
            "byteOffset" : 13608
        },
        {
            "buffer" : 0,
            "byteLength" : 3744,
            "byteOffset" : 13800
        },
        {
            "buffer" : 0,
            "byteLength" : 3744,
            "byteOffset" : 17544
        },
        {
            "buffer" : 0,
            "byteLength" : 2496,
            "byteOffset" : 21288
        },
        {
            "buffer" : 0,
            "byteLength" : 984,
            "byteOffset" : 23784
        },
        {
            "buffer" : 0,
            "byteLength" : 3744,
            "byteOffset" : 24768
        },
        {
            "buffer" : 0,
            "byteLength" : 3744,
            "byteOffset" : 28512
        },
        {
            "buffer" : 0,
            "byteLength" : 2496,
            "byteOffset" : 32256
        }
    ],
    "buffers" : [
        {
            "byteLength" : 34752,
            "uri" : "data:application/octet-stream;base64,"
        }
    ]
}
