<svg xmlns="http://www.w3.org/2000/svg" xmlns:xlink="http://www.w3.org/1999/xlink" viewBox="0 0 565 1111.61">
  <defs>
    <style>
      .cls-1 {
        fill: url(#未命名的渐变_3);
      }

      .cls-2 {
        fill: url(#未命名的渐变_4);
      }

      .cls-3 {
        fill: url(#未命名的渐变_14);
      }

      .cls-4 {
        fill: url(#未命名的渐变);
      }

      .cls-5 {
        fill: url(#未命名的渐变_33);
      }

      .cls-6 {
        fill: url(#未命名的渐变_17);
      }

      .cls-7 {
        fill: url(#未命名的渐变_47);
      }

      .cls-10, .cls-11, .cls-12, .cls-13, .cls-14, .cls-15, .cls-16, .cls-17, .cls-18, .cls-19, .cls-20, .cls-21, .cls-22, .cls-23, .cls-24, .cls-25, .cls-26, .cls-27, .cls-8, .cls-9 {
        fill: none;
        stroke-miterlimit: 10;
        stroke-width: 5px;
      }

      .cls-8 {
        stroke: url(#未命名的渐变_10);
      }

      .cls-9 {
        stroke: url(#未命名的渐变_10-2);
      }

      .cls-10 {
        stroke: url(#未命名的渐变_10-3);
      }

      .cls-11 {
        stroke: url(#未命名的渐变_10-4);
      }

      .cls-12 {
        stroke: url(#未命名的渐变_10-5);
      }

      .cls-13 {
        stroke: url(#未命名的渐变_10-6);
      }

      .cls-14 {
        stroke: url(#未命名的渐变_10-7);
      }

      .cls-15 {
        stroke: url(#未命名的渐变_10-8);
      }

      .cls-16 {
        stroke: url(#未命名的渐变_10-9);
      }

      .cls-17 {
        stroke: url(#未命名的渐变_10-10);
      }

      .cls-18 {
        stroke: url(#未命名的渐变_10-11);
      }

      .cls-19 {
        stroke: url(#未命名的渐变_10-12);
      }

      .cls-20 {
        stroke: url(#未命名的渐变_10-13);
      }

      .cls-21 {
        stroke: url(#未命名的渐变_10-14);
      }

      .cls-22 {
        stroke: url(#未命名的渐变_10-15);
      }

      .cls-23 {
        stroke: url(#未命名的渐变_10-16);
      }

      .cls-24 {
        stroke: url(#未命名的渐变_10-17);
      }

      .cls-25 {
        stroke: url(#未命名的渐变_10-18);
      }

      .cls-26 {
        stroke: url(#未命名的渐变_10-19);
      }

      .cls-27 {
        stroke: url(#未命名的渐变_10-20);
      }
    </style>
    <linearGradient id="未命名的渐变_3" data-name="未命名的渐变 3" x1="282.5" y1="386.93" x2="282.5" y2="-69.5" gradientTransform="matrix(1, 0, 0, -1, 0, 993.23)" gradientUnits="userSpaceOnUse">
      <stop offset="0" stop-color="#96ffff" stop-opacity="0.5"/>
      <stop offset="0.99" stop-color="#3f6e92"/>
    </linearGradient>
    <linearGradient id="未命名的渐变_4" data-name="未命名的渐变 4" x1="283.73" y1="424.34" x2="283.73" y2="83.54" gradientTransform="matrix(1, 0, 0, -1, 0, 993.23)" gradientUnits="userSpaceOnUse">
      <stop offset="0" stop-color="#96ffff" stop-opacity="0.2"/>
      <stop offset="0.99" stop-color="#3f6e92"/>
    </linearGradient>
    <linearGradient id="未命名的渐变_14" data-name="未命名的渐变 14" x1="283.73" y1="829.13" x2="283.73" y2="544.3" gradientUnits="userSpaceOnUse">
      <stop offset="0" stop-color="#ff1d25" stop-opacity="0.6"/>
      <stop offset="1" stop-color="#f1931f"/>
    </linearGradient>
    <linearGradient id="未命名的渐变" x1="380.46" y1="677.35" x2="380.46" y2="532.15" gradientUnits="userSpaceOnUse">
      <stop offset="0" stop-color="#ff931e" stop-opacity="0.5"/>
      <stop offset="0.99" stop-color="#ff931e"/>
    </linearGradient>
    <linearGradient id="未命名的渐变_33" data-name="未命名的渐变 33" x1="289.18" y1="713.34" x2="289.18" y2="582.35" gradientUnits="userSpaceOnUse">
      <stop offset="0" stop-color="#fff"/>
      <stop offset="0.99" stop-color="#3f6e92" stop-opacity="0.7"/>
    </linearGradient>
    <linearGradient id="未命名的渐变_17" data-name="未命名的渐变 17" x1="267" y1="835.05" x2="267" y2="541.1" gradientTransform="translate(-402.42 387.88) rotate(-45)" gradientUnits="userSpaceOnUse">
      <stop offset="0" stop-color="#fff" stop-opacity="0.5"/>
      <stop offset="0.99" stop-color="#3f6e92"/>
    </linearGradient>
    <linearGradient id="未命名的渐变_47" data-name="未命名的渐变 47" x1="283.6" y1="881.26" x2="283.6" y2="529.63" gradientUnits="userSpaceOnUse">
      <stop offset="0" stop-color="#fff" stop-opacity="0.5"/>
      <stop offset="0.28" stop-color="#f8f8f8" stop-opacity="0.3"/>
      <stop offset="1" stop-color="#6c7a87"/>
    </linearGradient>
    <linearGradient id="未命名的渐变_10" data-name="未命名的渐变 10" x1="116.74" y1="528.02" x2="163.99" y2="528.02" gradientUnits="userSpaceOnUse">
      <stop offset="0" stop-color="#0071bc"/>
      <stop offset="1" stop-color="#bdf7fa"/>
    </linearGradient>
    <linearGradient id="未命名的渐变_10-2" x1="190.63" y1="528.02" x2="237.88" y2="528.02" xlink:href="#未命名的渐变_10"/>
    <linearGradient id="未命名的渐变_10-3" x1="264.51" y1="528.02" x2="311.76" y2="528.02" xlink:href="#未命名的渐变_10"/>
    <linearGradient id="未命名的渐变_10-4" x1="338.39" y1="528.02" x2="385.64" y2="528.02" xlink:href="#未命名的渐变_10"/>
    <linearGradient id="未命名的渐变_10-5" x1="412.27" y1="528.02" x2="459.52" y2="528.02" xlink:href="#未命名的渐变_10"/>
    <linearGradient id="未命名的渐变_10-6" x1="116.74" y1="636.61" x2="163.99" y2="636.61" xlink:href="#未命名的渐变_10"/>
    <linearGradient id="未命名的渐变_10-7" x1="190.63" y1="636.61" x2="237.88" y2="636.61" xlink:href="#未命名的渐变_10"/>
    <linearGradient id="未命名的渐变_10-8" x1="264.51" y1="636.61" x2="311.76" y2="636.61" xlink:href="#未命名的渐变_10"/>
    <linearGradient id="未命名的渐变_10-9" x1="338.39" y1="636.61" x2="385.64" y2="636.61" xlink:href="#未命名的渐变_10"/>
    <linearGradient id="未命名的渐变_10-10" x1="412.27" y1="636.61" x2="459.52" y2="636.61" xlink:href="#未命名的渐变_10"/>
    <linearGradient id="未命名的渐变_10-11" x1="116.74" y1="745.2" x2="163.99" y2="745.2" xlink:href="#未命名的渐变_10"/>
    <linearGradient id="未命名的渐变_10-12" x1="190.63" y1="745.2" x2="237.88" y2="745.2" xlink:href="#未命名的渐变_10"/>
    <linearGradient id="未命名的渐变_10-13" x1="264.51" y1="745.2" x2="311.76" y2="745.2" xlink:href="#未命名的渐变_10"/>
    <linearGradient id="未命名的渐变_10-14" x1="338.39" y1="745.2" x2="385.64" y2="745.2" xlink:href="#未命名的渐变_10"/>
    <linearGradient id="未命名的渐变_10-15" x1="412.27" y1="745.2" x2="459.52" y2="745.2" xlink:href="#未命名的渐变_10"/>
    <linearGradient id="未命名的渐变_10-16" x1="116.74" y1="853.79" x2="163.99" y2="853.79" xlink:href="#未命名的渐变_10"/>
    <linearGradient id="未命名的渐变_10-17" x1="190.63" y1="853.79" x2="237.88" y2="853.79" xlink:href="#未命名的渐变_10"/>
    <linearGradient id="未命名的渐变_10-18" x1="264.51" y1="853.79" x2="311.76" y2="853.79" xlink:href="#未命名的渐变_10"/>
    <linearGradient id="未命名的渐变_10-19" x1="338.39" y1="853.79" x2="385.64" y2="853.79" xlink:href="#未命名的渐变_10"/>
    <linearGradient id="未命名的渐变_10-20" x1="412.27" y1="853.79" x2="459.52" y2="853.79" xlink:href="#未命名的渐变_10"/>
    <path id="rain" class="cls-2" d="M283.37,517.51S321,637.61,379.43,706.74c53.73,63.58,33.94,210.77-96.06,210.77l-.37.1c-130,0-147.34-145.2-96.06-210.77C245,632.61,283,517.61,283,517.61"/>
    <ellipse id="sun" class="cls-3" cx="283.73" cy="680.11" rx="185.57" ry="166.11"/>
    <g id="cloudy">
      <ellipse class="cls-4" cx="380.46" cy="600.61" rx="112.68" ry="91.3"/>
      <path id="cloudy-2" data-name="cloudy" class="cls-5" d="M289.64,725.81c-19.82,0-61.46-6.43-81.28-6.43-15.22,0-43.54,2.1-58.88,5.89C119.63,732.65,99,704.61,99,675.92c0-19.22,15.4-39.81,33.8-45.36,49.34-14.87,101-55,101-55a120.27,120.27,0,0,1,87.95-9.53,94.61,94.61,0,0,1,33,16.95C369,594.1,400,615.35,444.72,629.61c35.85,11.45,46.75,57.74,18.81,82.94a49.64,49.64,0,0,1-33.74,12.72s-49-5.89-64.7-5.89C345.73,719.38,309,725.81,289.64,725.81Z"/>
    </g>
    <rect id="clear" class="cls-6" x="136.32" y="549.01" width="261.38" height="261.38" transform="translate(558.82 10.28) rotate(45)"/>
    <rect id="mist" class="cls-7" x="108.52" y="474.34" width="350.16" height="442.18"/>
    <g id="drizzle">
      <g>
        <line x1="161.82" y1="490.19" x2="118.92" y2="565.86"/>
        <line class="cls-8" x1="161.82" y1="490.19" x2="118.92" y2="565.86"/>
      </g>
      <g>
        <line x1="235.7" y1="490.19" x2="192.8" y2="565.86"/>
        <line class="cls-9" x1="235.7" y1="490.19" x2="192.8" y2="565.86"/>
      </g>
      <g>
        <line x1="309.58" y1="490.19" x2="266.68" y2="565.86"/>
        <line class="cls-10" x1="309.58" y1="490.19" x2="266.68" y2="565.86"/>
      </g>
      <g>
        <line x1="383.46" y1="490.19" x2="340.56" y2="565.86"/>
        <line class="cls-11" x1="383.46" y1="490.19" x2="340.56" y2="565.86"/>
      </g>
      <g>
        <line x1="457.35" y1="490.19" x2="414.45" y2="565.86"/>
        <line class="cls-12" x1="457.35" y1="490.19" x2="414.45" y2="565.86"/>
      </g>
      <g>
        <line x1="161.82" y1="598.78" x2="118.92" y2="674.45"/>
        <line class="cls-13" x1="161.82" y1="598.78" x2="118.92" y2="674.45"/>
      </g>
      <g>
        <line x1="235.7" y1="598.78" x2="192.8" y2="674.45"/>
        <line class="cls-14" x1="235.7" y1="598.78" x2="192.8" y2="674.45"/>
      </g>
      <g>
        <line x1="309.58" y1="598.78" x2="266.68" y2="674.45"/>
        <line class="cls-15" x1="309.58" y1="598.78" x2="266.68" y2="674.45"/>
      </g>
      <g>
        <line x1="383.46" y1="598.78" x2="340.56" y2="674.45"/>
        <line class="cls-16" x1="383.46" y1="598.78" x2="340.56" y2="674.45"/>
      </g>
      <g>
        <line x1="457.35" y1="598.78" x2="414.45" y2="674.45"/>
        <line class="cls-17" x1="457.35" y1="598.78" x2="414.45" y2="674.45"/>
      </g>
      <g>
        <line x1="161.82" y1="707.37" x2="118.92" y2="783.04"/>
        <line class="cls-18" x1="161.82" y1="707.37" x2="118.92" y2="783.04"/>
      </g>
      <g>
        <line x1="235.7" y1="707.37" x2="192.8" y2="783.04"/>
        <line class="cls-19" x1="235.7" y1="707.37" x2="192.8" y2="783.04"/>
      </g>
      <g>
        <line x1="309.58" y1="707.37" x2="266.68" y2="783.04"/>
        <line class="cls-20" x1="309.58" y1="707.37" x2="266.68" y2="783.04"/>
      </g>
      <g>
        <line x1="383.46" y1="707.37" x2="340.56" y2="783.04"/>
        <line class="cls-21" x1="383.46" y1="707.37" x2="340.56" y2="783.04"/>
      </g>
      <g>
        <line x1="457.35" y1="707.37" x2="414.45" y2="783.04"/>
        <line class="cls-22" x1="457.35" y1="707.37" x2="414.45" y2="783.04"/>
      </g>
      <g>
        <line x1="161.82" y1="815.96" x2="118.92" y2="891.63"/>
        <line class="cls-23" x1="161.82" y1="815.96" x2="118.92" y2="891.63"/>
      </g>
      <g>
        <line x1="235.7" y1="815.96" x2="192.8" y2="891.63"/>
        <line class="cls-24" x1="235.7" y1="815.96" x2="192.8" y2="891.63"/>
      </g>
      <g>
        <line x1="309.58" y1="815.96" x2="266.68" y2="891.63"/>
        <line class="cls-25" x1="309.58" y1="815.96" x2="266.68" y2="891.63"/>
      </g>
      <g>
        <line x1="383.46" y1="815.96" x2="340.56" y2="891.63"/>
        <line class="cls-26" x1="383.46" y1="815.96" x2="340.56" y2="891.63"/>
      </g>
      <g>
        <line x1="457.35" y1="815.96" x2="414.45" y2="891.63"/>
        <line class="cls-27" x1="457.35" y1="815.96" x2="414.45" y2="891.63"/>
      </g>
    </g>
  </defs>
  <title>weatherCombined</title>
  <g id="图层_3" data-name="图层 3">
    <polygon id="bbg" class="cls-1" points="565 553.61 0 782.61 0 1111.61 565 1111.61 565 553.61"/>
    
  </g>
</svg>
