<?xml version="1.0" encoding="utf-8"?>
<!-- Generator: Adobe Illustrator 23.0.6, SVG Export Plug-In . SVG Version: 6.00 Build 0)  -->
<svg version="1.1" id="图层_1" xmlns="http://www.w3.org/2000/svg" xmlns:xlink="http://www.w3.org/1999/xlink" x="0px" y="0px"
	 viewBox="0 0 565 1108.2" style="enable-background:new 0 0 565 1108.2;" xml:space="preserve">
<style type="text/css">
	.st0{fill:url(#bbg_1_);}
	.st1{fill:url(#bbgA_1_);}
	.st2{clip-path:url(#SVGID_2_);}
	.st3{fill:#0071BC;}
</style>
<title>weather</title>
<g id="图层_3">
	
		<linearGradient id="bbg_1_" gradientUnits="userSpaceOnUse" x1="282.5" y1="1106.9169" x2="282.5" y2="1563.3369" gradientTransform="matrix(1 0 0 1 0 -504)">
		<stop  offset="0" style="stop-color:#96FFFF;stop-opacity:0.5"/>
		<stop  offset="0.99" style="stop-color:#3F6E92"/>
	</linearGradient>
	<polygon id="bbg" class="st0" points="565,550.2 0,779.2 0,1108.2 565,1108.2 	"/>
	
		<linearGradient id="bbgA_1_" gradientUnits="userSpaceOnUse" x1="283.7294" y1="1069.4968" x2="283.7294" y2="1410.2969" gradientTransform="matrix(1 0 0 1 0 -504)">
		<stop  offset="0" style="stop-color:#96FFFF;stop-opacity:0.2"/>
		<stop  offset="0.99" style="stop-color:#3F6E92"/>
	</linearGradient>
	<path id="bbgA" class="st1" d="M283.4,514.1c0,0,37.6,120.1,96.1,189.2c53.7,63.6,33.9,210.8-96.1,210.8l-0.4,0.1
		c-130,0-147.3-145.2-96.1-210.8C245,629.2,283,514.2,283,514.2"/>
	<g>
		<defs>
			<path id="SVGID_1_" d="M282.4,514.1c0,0,37.6,120.1,96.1,189.2c53.7,63.6,33.9,210.8-96.1,210.8l-0.4,0.1
				c-130,0-147.3-145.2-96.1-210.8C244,629.2,282,514.2,282,514.2"/>
		</defs>
		<clipPath id="SVGID_2_">
			<use xlink:href="#SVGID_1_"  style="overflow:visible;"/>
		</clipPath>
		<g class="st2">
			<rect id="waterH" x="136" y="829.2" class="st3" width="283" height="85"/>
		</g>
	</g>
</g>
</svg>
