<?xml version="1.0" encoding="utf-8"?>
<!-- Generator: Adobe Illustrator 23.0.6, SVG Export Plug-In . SVG Version: 6.00 Build 0)  -->
<svg version="1.1" xmlns="http://www.w3.org/2000/svg" xmlns:xlink="http://www.w3.org/1999/xlink" x="0px" y="0px"
	 viewBox="0 0 786 574" enable-background="new 0 0 786 574" xml:space="preserve">
<g id="图层_1">
</g>
<g id="图层_2">
</g>
<g id="图层_3">
	<g>
		<rect x="124" y="197" fill="#333333" width="244" height="361"/>
		<path fill="#4D4D4D" d="M342.88,536.32H143.12c-1.84,0-3.33-1.49-3.33-3.33v-3.97c0-1.84,1.49-3.33,3.33-3.33h199.77
			c1.84,0,3.33,1.49,3.33,3.33v3.97C346.22,534.83,344.72,536.32,342.88,536.32z"/>
		<path fill="#BCC3C3" d="M337.07,534.33H148.93c-1.84,0-3.33-1.49-3.33-3.33l0,0c0-1.84,1.49-3.33,3.33-3.33h188.13
			c1.84,0,3.33,1.49,3.33,3.33l0,0C340.4,532.84,338.91,534.33,337.07,534.33z"/>
	</g>
	<circle fill="#0071BC" cx="393" cy="281" r="221.63"/>
	<path id="circleLine" fill="none" stroke="#0071BC" stroke-width="15" stroke-miterlimit="10" d="M393,29.08
		c139.13,0,251.92,112.79,251.92,251.92S532.13,532.92,393,532.92S141.08,420.13,141.08,281S253.87,29.08,393,29.08"/>
	<path fill="#333333" d="M606.87,503H680V334H393v169h72.13c17.63,0.88,55.87,7.67,55.87,50h-65v5h160v-5h-65
		C551,510.67,589.25,503.88,606.87,503z M542.18,552h-11.35v-37.32c0-3.14,2.54-5.68,5.68-5.68l0,0c3.14,0,5.68,2.54,5.68,5.68V552z
		"/>
	<circle fill="#FF0000" cx="675" cy="498" r="1.92"/>
	<rect class="webApiBar" x="405.5" y="345.5" fill="#4D4D4D" width="232.5" height="10.5"/>
	<rect class="webApiBar" x="405.5" y="363.5" fill="#4D4D4D" width="138.5" height="10.5"/>
	<rect class="webApiBar" x="405.5" y="381.5" fill="#4D4D4D" width="188.5" height="10.5"/>
	<rect class="webApiBar" x="405.5" y="399.5" fill="#4D4D4D" width="171.5" height="10.5"/>
	<rect class="webApiBar" x="405.5" y="417.5" fill="#4D4D4D" width="147.5" height="10.5"/>
	<rect class="webApiBar" x="405.5" y="435.5" fill="#4D4D4D" width="181.5" height="10.5"/>
	<rect class="webApiBar" x="405.5" y="453.5" fill="#4D4D4D" width="144.5" height="10.5"/>
	<rect class="webApiBar" x="405.5" y="471.5" fill="#4D4D4D" width="126.5" height="10.5"/>
</g>
</svg>
